<?xml version="1.0" encoding="utf-8"?>
<!-- Generator: Adobe Illustrator 21.0.0, SVG Export Plug-In . SVG Version: 6.00 Build 0)  -->
<svg version="1.1" id="Capa_1" xmlns="http://www.w3.org/2000/svg" xmlns:xlink="http://www.w3.org/1999/xlink" x="0px" y="0px"
	 viewBox="0 0 140 50" style="enable-background:new 0 0 140 50;" xml:space="preserve">
<style type="text/css">
	.st0{display:none;}
	.st1{display:inline;fill:none;}
	.st2{display:inline;fill:#FFFFFF;}
	.st3{fill:none;}
	.st4{fill:#FFFFFF;}
	.st5{font-family:'Rockwell-ExtraBold';}
	.st6{font-size:13px;}
	.st7{font-size:11px;}
</style>
<g class="st0">
	<rect x="13.5" y="18.1" class="st1" width="9.5" height="12.9"/>
	<path class="st2" d="M18.3,20.3c-1.2,0-1.9,0.4-1.9,1.2c0,0.4,0.2,0.6,0.5,0.8c0.3,0.2,1,0.5,2.2,0.8s1.9,0.8,2.4,1.2
		c0.5,0.5,0.7,1.2,0.7,2.1c0,1.2-0.4,2.1-1.1,2.8c-0.7,0.6-1.7,0.9-2.9,0.9c-0.9,0-2-0.1-3.2-0.4l-0.6-0.1l0.2-1.8
		c1.5,0.2,2.7,0.3,3.5,0.3c1.2,0,1.8-0.5,1.8-1.5c0-0.4-0.1-0.6-0.4-0.8c-0.3-0.2-0.8-0.4-1.7-0.7c-1.3-0.4-2.2-0.8-2.8-1.3
		c-0.5-0.5-0.8-1.2-0.8-2.2c0-1.2,0.4-2,1.1-2.6c0.7-0.6,1.7-0.9,2.9-0.9c0.8,0,1.9,0.1,3.2,0.3l0.6,0.1l-0.2,1.9
		C20.1,20.4,19,20.3,18.3,20.3z"/>
</g>
<rect x="59.1" y="14.3" class="st3" width="81.6" height="23.5"/>
<text transform="matrix(1 0 0 1 59.0883 23.1402)" class="st4 st5 st6">CEDIDENT</text>
<text transform="matrix(1 0 0 1 59.0883 36.3402)" class="st4 st5 st7">DIGITAL</text>
<g transform="translate(0.000000,1084.000000) scale(0.100000,-0.100000)">
	<path class="st4" d="M19.6,10588.2V10354H302h282.4v234.2v234.2H302.1H19.6V10588.2z M424.2,10790.5c7.2-2.6,12-7.3,15-14.7
		l1.1-2.9l0.2-26.6l0.2-26.7l6.3,2.2c3.4,1.2,6.4,2.4,6.6,2.5c0.3,0.3-2.6,0.2-9.7-0.5c-2.9-0.3-3-0.3-3,0.6c0,0.5,0.3,1,0.6,1.2
		c0.3,0.1,5,0.5,10.5,1l9.9,0.7l5.1,2c13.5,5.2,26.3,11.4,33.8,16.3c3.9,2.5,8.3,6.7,9,8.6c2.1,5.4-3.4,8.6-17.7,10.2
		c-8.6,1-35.6,0.3-48.6-1.1c-2.6-0.3-2.6-0.3-2.6,0.9c0,0.9,0.2,1.1,1,1.1c0.5,0,5.3,0.4,10.7,0.9c16.2,1.4,33.7,2,43.6,1.4
		c12.1-0.7,17.9-1.8,22.9-4.2c6-3,5.1-8.5-2.5-14.4c-5.8-4.5-15.9-10.2-26.3-14.7c-2.8-1.3-6.3-2.8-7.9-3.5
		c-1.5-0.7-3.3-1.4-3.9-1.5c-2.8-0.7-0.7-1,8.6-1c16.7,0,27-1.5,32.5-4.6c2.5-1.4,3.4-2.7,3.4-5.1c0-5.4-8.4-12-26.3-20.8
		c-3.7-1.8-6.8-3.3-6.9-3.3s-2.1-0.9-4.4-1.9s-5.1-2.2-6.3-2.7l-2.2-0.8l12.4-0.3c16.1-0.4,24.2-1.5,29.4-4.1
		c5.8-2.9,5.9-7.4,0.1-12.7c-6.4-5.9-19.1-13-36.4-20.1l-5.5-2.3h7.7c14.4,0,26.5-1.3,32.3-3.5c1.4-0.5,3.4-1.7,4.3-2.5
		c1.5-1.5,1.7-1.9,1.7-3.8c0-1.7-0.3-2.5-1.4-4.1c-7.1-9.6-33.2-22.4-76-37.1c-2.2-0.7-4.2-1.4-4.5-1.5c-0.4-0.1-0.6-6.8-0.7-28.2
		l-0.1-28l-1.1-2.9c-1.6-4-3.5-6.8-6.7-9.6c-2.9-2.6-5.4-4.1-9.4-5.3c-2.6-0.7-7.3-0.8-117.8-0.8s-115.3,0-117.8,0.8
		c-4.3,1.3-6.9,2.9-10.2,6.1c-2.1,2.1-3.6,4-4.6,6l-1.5,2.9l-2-0.2c-6-0.8-24.6-2.1-34.4-2.4c-21.1-0.7-35.4,0.6-42.8,4
		c-3.3,1.5-4.5,3-4.5,5.6c0,3.9,4.1,8.1,14.1,14.3c4.2,2.6,17.8,9.3,25.7,12.7l6,2.5l-12.4,0.3c-20.3,0.5-29.6,2.4-32.7,6.9
		c-0.9,1.3-1,3.9,0,5.7c3.2,6,18.4,15.4,38.8,23.9l6.1,2.6l-10.5,0.3c-12.5,0.3-16.1,0.6-22.2,1.7c-6,1.1-9,2.3-11.2,4.2
		c-1.5,1.4-1.7,1.9-1.7,3.5c0,4.4,4.1,8.6,14.6,15c5.7,3.5,19,9.9,27.2,13.2c2,0.8,3.6,1.6,3.6,1.7c0,0.2-4.9,0.3-10.9,0.3
		c-15.4,0.1-24.8,1.4-30.5,4.2c-2.8,1.4-4,3-4,5.5c0,8.5,24.4,22.1,67.3,37.5c4.1,1.5,9.1,3.2,11.2,3.9l3.7,1.2l-0.1-1.4
		c-0.1-1.3-0.3-1.4-4.8-3c-30.2-11-49.1-20.2-56.1-27.4c-2.7-2.8-3.4-4.1-3.4-6.2c0-2,2.6-4.3,6.2-5.5c6-1.9,9.6-2.3,24.5-2.5
		l14.2-0.2l5,1.8c6.1,2.2,13.7,4.8,14.2,4.8c0.2,0,0.4-0.6,0.4-1.3c0-1.2-0.2-1.3-3.4-2.4c-5-1.6-5.4-2.1-1.7-1.8
		c1.7,0.1,3.6,0.3,4.3,0.3h1.2v54.4c0,59.3,0,57.4,2.6,62.9c2.2,4.5,6.6,8.9,11.3,11c4.9,2.2-1.6,2.2,122.2,2.1l115.2-0.1
		L424.2,10790.5z M330.3,10500.8c1.4-0.7,4.4-3.8,11.3-11.8c9.3-10.7,10.8-12.1,11.8-10.5c0.2,0.3,0.4,5.6,0.4,11.7v11.1h4.9h4.9
		v-13.7v-13.7l-1.1-2.2c-1.5-3-3.8-4.5-7.2-4.8c-4.7-0.4-5.9,0.3-11.9,7.3c-15.1,17.9-14.6,17.4-15.9,17.4h-1.2l-0.1-11.8l-0.1-11.8
		H321h-4.9v13.6c0,8.6,0.2,14,0.5,14.8c0.6,1.6,2.9,4,4.6,4.7C323.5,10502.2,328.1,10502,330.3,10500.8z M109.2,10497.3v-4.1h-12
		c-10.3,0-12.1-0.1-13.2-0.7c-2.2-1.3-2.6-2.6-2.6-8.2v-5.1l1.5-1.5l1.5-1.5H97h12.7l-0.1-4.2l-0.1-4.2H94.7
		c-12.9,0-15,0.1-16.4,0.7c-2.8,1.2-4.7,2.9-5.9,5.2c-1.1,2.2-1.1,2.4-1.1,11c0,7.8,0.1,9,0.8,10.4c1.1,2,3.2,4,5.6,5.2
		c1.7,0.9,2.4,0.9,16.6,0.9h14.9V10497.3z M152.2,10500.8c2-0.8,4.7-3.2,5.4-4.9c0.8-1.7,0.8-9.5,0.1-11.9c-0.3-1.1-0.9-1.9-1.9-2.5
		c-1.3-0.8-2.3-0.9-17.6-0.9H122v-1.4c0-0.8,0.4-1.8,1-2.4l0.9-1h16.9h16.9l-0.1-4l-0.1-4l-17.2-0.1c-11,0-18,0.1-19.5,0.3
		c-3.1,0.6-5.8,2.8-7.5,6l-1.4,2.6v8.4c0,7.6,0.1,8.5,0.9,10.1c1.3,2.5,2.9,3.9,5.4,5.2l2.2,1.1h15.1
		C147.4,10501.4,151.1,10501.3,152.2,10500.8z M198.1,10500.2c2.2-1.1,3.8-2.8,5-5.2c0.8-1.7,0.9-2.5,0.9-11.1v-9.2l-1.2-1.7
		c-1.7-2.2-3.9-3.8-6.5-4.7c-1.9-0.6-4.5-0.7-18.7-0.6l-16.5,0.1l-0.1,10.3l-0.1,10.2h5.1h5.1v-6v-6h9.7c10.9,0,12,0.2,13.1,2.8
		c0.8,2,0.8,9.2,0,11.2c-1.2,2.7-1.6,2.8-18.1,2.8H161v4.1v4.1l17.8-0.1C195.8,10501.2,196.4,10501.1,198.1,10500.2z M217.8,10484.8
		v-16.6h-4.9H208v16.6v16.6h4.9h4.9V10484.8z M257,10501c2.4-0.6,4.8-2.5,6.3-4.9l1.5-2.2v-9.5v-9.5l-1.2-1.9
		c-1.3-2-4.4-4.1-6.9-4.8c-0.9-0.3-8.6-0.4-18.2-0.4h-16.7v10.4v10.4h4.9h4.9v-6v-6h10.2H252l1.5,1.5l1.5,1.5v5.4
		c0,5.4,0,5.4-1.3,6.8l-1.3,1.4l-15.4,0.2l-15.4,0.2l-0.1,3.4c-0.1,1.9,0,3.7,0.1,4c0.2,0.4,3.4,0.6,17.1,0.6
		C248.3,10501.4,256.2,10501.2,257,10501z M307.7,10500.7c1.9-0.7,4.3-2.9,5.2-4.6c0.4-0.8,0.6-2.7,0.6-6.5c0-5.9-0.6-7.7-2.9-8.6
		c-0.7-0.3-7.8-0.4-17.2-0.4h-16.1v-1.3c0-0.8,0.4-1.7,1.1-2.4l1.1-1.1h16.8h16.8v-4.1v-4.1l-18.6,0.1c-18.1,0.1-18.7,0.2-20.4,1
		c-2.6,1.4-4.6,3.4-5.8,5.9c-1,2.1-1.1,2.7-1.1,10.3c0,7.7,0,8.1,1.1,10.2c1.2,2.3,3.4,4.4,6,5.5
		C276.6,10501.7,305.4,10501.7,307.7,10500.7z M393.4,10484.8v-16.6h-4.9h-4.9v12.5v12.5h-8.8H366v4.1v4.1h13.7h13.7
		C393.4,10501.4,393.4,10484.8,393.4,10484.8z M423.3,10497.2l0.1-4h-8.9h-8.8v-12.7v-12.7h-4.9H396v16.9v16.9l13.6-0.1l13.5-0.1
		L423.3,10497.2z M494.4,10498.6v-2.4h13.7h13.7v-2.4v-2.4h-13.7h-13.6l-0.1,2.4l-0.1,2.4h-34.1h-34.1v2.4v2.4h34.2h34.2
		L494.4,10498.6L494.4,10498.6z M541.4,10498.6v-2.2l-9.6-0.1l-9.6-0.1v2.4v2.4l9.5-0.1l9.6-0.1L541.4,10498.6z M442.9,10481.9
		c1.6-0.9,2.2-2.7,2.2-7.6v-4.6l-1.5-1.5l-1.5-1.5h-7.5H427l0.1,4.9l0.1,4.8h2h2l0.1-2.9l0.1-2.9h3.9c3.4,0,4.1,0.1,4.9,0.9
		c1.1,1.1,1.2,4.9,0.2,6.4c-0.6,0.9-1,1-7.1,1h-6.4v1.7v1.7h7.5C438.8,10482.4,442.4,10482.2,442.9,10481.9z M451.6,10474.6v-7.8h-2
		h-2v7.8v7.8h2h2V10474.6z M470.6,10480.6v-1.7H465c-3,0-5.9-0.2-6.4-0.4c-0.7-0.4-0.8-1-0.8-3.7c0-3.9,0.3-4.2,5.2-4
		c3.1,0.1,3.4,0.2,3.5,1.1s0,1-2.3,1h-2.5v2v2l3.4-0.2c2.8-0.2,3.5-0.4,4.5-1.3c2.2-2.2,1.6-6.9-1-8.1c-0.6-0.3-3.4-0.5-6.3-0.5
		c-4.4,0-5.4,0.1-6.4,0.8c-2.1,1.3-2.4,2.5-2.5,7.1c0,4.4,0.5,6.3,2.1,7.2c0.4,0.3,3.9,0.5,8,0.5h7.1
		C470.6,10482.4,470.6,10480.6,470.6,10480.6z M477.2,10474.6v-7.8h-2h-2v7.8v7.8h2h2V10474.6z M490.5,10474.6v-7.8l-2.1,0.1
		l-2.1,0.1l-0.1,6l-0.1,5.9h-3.5H479v1.7v1.7h5.7h5.7L490.5,10474.6L490.5,10474.6z M502.7,10480.6l-0.1-1.9l-3.6-0.1l-3.7-0.1v-5.8
		v-5.8h-2h-2v7.8v7.8h5.8h5.7L502.7,10480.6z M521.2,10481.7c1.9-1.3,2.4-3.2,2.4-9.2v-5.7h-2.2c-1.4,0-2.2,0.2-2.2,0.5
		c0,0.4-0.1,0.4-0.5,0c-0.4-0.3-2.5-0.5-6.8-0.5c-7.8,0-7.7,0-7.7,4.8c0,5.1,0,5.1,7.4,5.1c3.3,0,6.3-0.2,6.8-0.4
		c0.7-0.4,0.8-0.3,0.8,0.3c0,1.6-1,1.8-8,1.9l-6.8,0.1l-0.1,1.9l-0.1,1.8h8.1C518.6,10482.4,520.5,10482.2,521.2,10481.7z
		 M529.4,10477.3c0.1-3.5,0.3-5.4,0.8-5.8c0.5-0.6,1.5-0.7,5.8-0.7h5.3v-1.9v-1.9H535h-6.3l-1.5,1.6l-1.5,1.5l-0.1,6.3l-0.1,6.2h1.9
		h2L529.4,10477.3z M80.1,10450.1c1.7-1.4,1.8-2.6,0.2-2.9c-0.9-0.2-1.3,0-2,0.8c-1.9,2.2-4.8,0.9-5.1-2.5c-0.3-2.4,0.4-4.3,1.9-5
		c1.4-0.6,3.2,0,3.7,1.4c0.4,1,0.5,1,1.7,0.6c1.5-0.5,1.4-1.5-0.4-3.2c-1.5-1.5-4.1-1.9-6.3-1c-3.8,1.6-4.9,7.3-2,10.9
		c1.2,1.5,2.3,1.9,4.9,1.9C78.2,10451.3,79,10451,80.1,10450.1z M144.2,10444.8l0.1-6.5h-1.2c-0.7,0-1.2,0.2-1.2,0.5
		c0,0.2-0.4,0.1-1-0.2c-1.9-1.3-4.4-0.5-5.6,1.8c-0.8,1.4-0.6,4.1,0.4,5.6c1.2,1.9,2.8,2.3,5.4,1.2c0.7-0.3,0.8,0,0.8,1.9
		c0,2,0.1,2.2,1.1,2.2h1.1L144.2,10444.8z M170.1,10450.5c1.9-0.9,3.1-3.1,3.1-5.8c0-4.8-1.8-6.4-7.3-6.4h-3.8v6.5v6.5h3.2
		C167.5,10451.3,169.1,10451,170.1,10450.5z M281.7,10450.8c1.6-0.6,2.3-1.5,2.3-3.4c0-1.4-1.6-3.5-2.7-3.5c-0.3,0,0-0.5,0.6-1.2
		c1.2-1.3,3-3.8,3-4.2c0-0.1-0.7-0.3-1.5-0.3c-1.3,0-1.7,0.3-2.9,2.1c-1.6,2.4-2.5,3.1-3.6,3.1c-0.7,0-0.8-0.4-0.8-2.6v-2.6h-1.3
		h-1.3v6.5v6.5h3.5C278.8,10451.3,280.9,10451.1,281.7,10450.8z M305.6,10444.8v-6.5h-1.3c-0.7,0-1.3,0.2-1.3,0.5
		c0,0.2-0.4,0.1-1-0.2c-1.5-1-2.9-0.8-4.4,0.6c-1.1,1.1-1.3,1.6-1.3,3.7s0.2,2.6,1.3,3.7c1.5,1.4,3.5,1.7,4.6,0.6
		c0.7-0.6,0.7-0.4,0.7,1.7c0,2.4,0,2.4,1.3,2.4h1.3L305.6,10444.8L305.6,10444.8z M327.2,10444.8v-6.5h-1.3h-1.3v6.5v6.5h1.3h1.3
		V10444.8z M393.5,10449.6c1.2-1.2,1.5-1.7,1.6-4.2c0.2-3.2-0.4-5-2-6.3c-0.9-0.7-1.8-0.9-5-0.9h-3.9v6.5v6.5l4-0.2
		C391.9,10451,392.2,10450.9,393.5,10449.6z M481.2,10444.8v-6.5h-1.3h-1.3v6.5v6.5h1.3h1.3V10444.8z M500.4,10450.8
		c0.4-0.6-0.4-1.5-1.3-1.5c-0.5,0-0.9-0.3-1-0.7c-0.1-0.6,0.1-0.8,0.8-0.8c0.7,0,0.9-0.3,0.9-1.1s-0.2-1.1-0.9-1.1
		c-0.8,0-0.9-0.3-0.9-3.7v-3.7h-1.3h-1.3v3.7c0,3-0.1,3.7-0.7,3.7c-0.4,0-0.7,0.4-0.7,1.1s0.3,1.1,0.7,1.1c0.4,0,0.7,0.3,0.7,0.8
		c0,1.6,1.3,2.7,3.1,2.7C499.3,10451.3,500.3,10451.1,500.4,10450.8z M539.9,10444.8v-6.5h-1.3h-1.3v6.5v6.5h1.3h1.3V10444.8z
		 M109.3,10447.8c0.6,0,0.8-0.3,0.8-1.1s-0.2-1.1-0.9-1.1c-0.8,0-0.9-0.3-0.9-2.6s0.1-2.7,0.9-2.9c1.4-0.4,0.9-2-0.6-2.2
		c-2.2-0.3-3,0.9-3,4.5c0,2.5-0.1,3.2-0.7,3.2c-0.4,0-0.7,0.4-0.7,0.9s0.3,1,0.7,1.1c0.4,0.2,0.7,0.6,0.7,1.1c0,0.4,0.5,1.1,1.2,1.4
		c1.2,0.6,1.2,0.6,1.3-0.9C108.3,10448.2,108.6,10447.8,109.3,10447.8z M238.6,10447.8c0.6,0,0.8-0.3,0.8-1.1s-0.2-1.1-0.9-1.1
		c-0.8,0-0.9-0.2-0.8-2.7c0.1-2.5,0.2-2.7,1.1-2.9c1.6-0.2,1.1-2-0.6-2.2c-2.3-0.2-2.9,0.6-3.1,4.2c0,1.9-0.3,3.3-0.6,3.4
		c-0.8,0.3-0.6,2.2,0.2,2.2c0.4,0,0.5,0.2,0.4,0.4s0.3,1,1,1.6l1.2,1.2l0.1-1.6C237.7,10448.2,237.9,10447.8,238.6,10447.8z
		 M422.6,10447.8c0.6,0,0.8-0.3,0.8-1.1s-0.2-1.1-0.9-1.1c-0.8,0-0.9-0.3-0.9-2.6s0.1-2.7,0.9-2.9c1.3-0.3,1-2-0.5-2.2
		c-2.1-0.3-2.8,0.8-3,4.4c-0.1,1.8-0.4,3.3-0.6,3.3s-0.4,0.5-0.4,1.1s0.2,1.1,0.4,1.1c0.3,0,0.4,0.3,0.4,0.8c0,0.4,0.5,1.1,1.2,1.5
		l1.2,0.7l0.1-1.5C421.6,10448.2,421.9,10447.8,422.6,10447.8z M90.4,10446.9c1-0.7,2.1-3.1,2.1-4.4c0-0.2-1.5-0.3-3.3-0.3
		s-3.3-0.1-3.3-0.3s0.2-0.6,0.4-1.1c0.5-0.9,2.4-1.1,2.9-0.4c0.4,0.5,2.9,0.6,2.9,0c0-1-1.7-2.3-3.4-2.5c-3.5-0.5-6,2.3-5.3,6
		C84,10447.2,87.9,10448.8,90.4,10446.9z M96.6,10447.1c-0.2-0.7,0.3-0.7,1.4,0.1c1.2,0.9,3,0.8,4.1-0.2c0.8-0.8,1-1.3,1-4.8v-3.9
		h-1.3h-1.3l-0.1,3.6c-0.1,3.4-0.2,3.5-1.2,3.7c-1.6,0.3-2.3-1-2.3-4.3v-2.9h-1.3h-1.3v4.8v4.8l1.2-0.1
		C96.1,10447.6,96.6,10447.4,96.6,10447.1z M114.1,10447.1c0-0.6,0-0.6,0.7,0c1.4,1.3,3.4,0.6,2.8-1c-0.3-0.7-0.6-1-1.2-0.7
		c-1.2,0.3-1.7-0.5-2-4c-0.3-2.9-0.4-3.2-1.4-3.2c-1.1,0-1.1,0-1.1,4.8v4.8h1.1C113.7,10447.8,114.1,10447.6,114.1,10447.1z
		 M126.7,10446.3c1.3-1.3,1.5-1.8,1.5-3.5c0-1.6-0.3-2.2-1.3-3.4c-1.1-1.3-1.5-1.4-3.6-1.4s-2.4,0.2-3.6,1.4c-1,1.1-1.3,1.8-1.3,3.4
		c0,1.7,0.2,2.2,1.5,3.5c1.2,1.2,1.9,1.5,3.4,1.5C124.8,10447.8,125.5,10447.6,126.7,10446.3z M153,10446.9c1-0.7,2.1-3.1,2.1-4.4
		c0-0.2-1.5-0.3-3.3-0.3s-3.3-0.1-3.3-0.3s0.2-0.6,0.4-1.1c0.5-0.9,2.4-1.1,2.9-0.4c0.3,0.4,2.9,0.6,2.9,0.3c0-0.8-0.8-1.7-1.8-2.2
		c-1.9-1-3.8-0.8-5.3,0.6c-1.3,1.2-1.5,1.5-1.5,3.7s0.1,2.5,1.5,3.7C149.2,10448.1,151.4,10448.2,153,10446.9z M187.3,10447
		c0.8-0.6,1-1.3,1.1-4.8l0.1-4h-1.8c-1,0-2.5-0.1-3.2-0.3c-1.6-0.3-3.8,1.1-3.8,2.5c0,1,1.5,2.9,2.3,2.9c0.3,0,1.3,0.2,2.2,0.4
		c1.1,0.3,1.5,0.6,1.4,1.1c-0.3,0.7-2.8,0.9-2.8,0.2c0-0.2-0.6-0.4-1.3-0.4c-1.7,0-1.7,0.9-0.2,2.1
		C182.9,10448.1,186,10448.1,187.3,10447z M196.5,10447.1c0.9-0.6,1-0.6,1,0c0,0.4,0.4,0.7,1.1,0.7h1.1v-5.6c0-5.4,0-5.7-1.1-6.7
		c-2-2-7.7-1.2-7.7,1.1c0,0.6,0.3,0.8,1.3,0.8c0.7,0,1.5-0.3,1.8-0.6c1.1-1.4,3.1-0.5,3.1,1.5c0,0.8-0.1,1-0.5,0.6
		c-0.7-0.6-3.4-0.6-4.4,0c-1.1,0.9-1.7,2.3-1.7,4.4c0,1.6,0.2,2.2,1.3,3.3C193.2,10448,195,10448.2,196.5,10447.1z M204.5,10447.1
		c0-0.6,0.1-0.6,1,0c1.5,1,3.3,0.9,4.5-0.4c1-1,1.1-1.4,1.1-4.8v-3.7h-1.3h-1.3v3c0,3.6-0.3,4.4-1.5,4.4c-1.6,0-2-0.8-2-4.2v-3.2
		h-1.3h-1.3v4.8v4.8h1.1C204.1,10447.8,204.5,10447.6,204.5,10447.1z M220.7,10446.9c1-0.6,1.5-1.3,1.9-2.5c0.6-2.3,0.2-3.7-1.7-5.3
		c-1.4-1.2-1.8-1.3-3.5-1.1c-2.5,0.3-4.1,1.7-4.4,4c-0.3,2.2,0.4,3.9,2.2,4.9C217.1,10448,218.9,10448,220.7,10446.9z M231,10447.2
		c0.8-0.4,1.3-1,1.3-1.3c0-0.9-1.8-1.2-2.9-0.4c-1,0.7-2.8,0.5-2.8-0.3c0-0.2,0.8-0.6,1.9-0.9c3.4-0.9,4.3-1.6,4.3-3.2
		c0-1.8-1.1-2.9-3.4-3.2c-1.9-0.3-4.7,0.8-5.1,1.9c-0.4,0.8-0.4,0.8,1.2,1.2c0.7,0.2,1.2,0.1,1.2-0.1c0-0.7,1.7-1.4,2.6-1.1
		c1.5,0.5,1,1.5-1,1.9c-2.8,0.7-3.9,1.6-3.9,2.9c0,0.6,0.2,1.4,0.4,1.6C225.8,10447.9,228.9,10448.2,231,10447.2z M252.8,10447.3
		c0.6-0.3,1.3-1,1.6-1.5c0.4-0.9,0.4-1-0.7-1.3c-0.8-0.2-1.2-0.1-1.5,0.4c-0.5,0.8-2.2,0.9-2.9,0.2c-0.8-0.7-0.7-4,0.1-4.7
		c0.8-0.6,2.9-0.2,2.9,0.6c0,0.7,1.2,0.9,2.2,0.3c0.5-0.3,0.5-0.6-0.1-1.6c-1.5-2.3-5.4-2.5-7.2-0.4c-1.2,1.4-1.4,5.1-0.3,6.6
		C247.9,10447.7,250.6,10448.3,252.8,10447.3z M264.4,10446.3c1.3-1.3,1.5-1.8,1.5-3.5c0-1.6-0.3-2.2-1.3-3.4
		c-1.1-1.3-1.5-1.4-3.6-1.4c-2,0-2.4,0.2-3.6,1.4c-1,1.1-1.3,1.8-1.3,3.4c0,1.7,0.2,2.2,1.5,3.5c1.2,1.2,1.9,1.5,3.4,1.5
		S263.1,10447.6,264.4,10446.3z M293.2,10447c0.8-0.6,1-1.3,1.1-4.8l0.2-4h-1.6c-0.9,0-2.3-0.1-3.2-0.3c-1.9-0.4-4,1-4,2.6
		c0,1.1,1.4,2.8,2.3,2.8c0.3,0,1.3,0.2,2.2,0.4c1.1,0.3,1.5,0.6,1.4,1.1c-0.3,0.7-2.8,0.9-2.8,0.2c0-0.2-0.6-0.4-1.3-0.4
		c-1.7,0-1.7,0.9-0.2,2.1C288.8,10448.1,291.9,10448.1,293.2,10447z M319.9,10447.3c3.5-1.6,3.4-7-0.2-8.9c-1.6-0.8-4.3-0.3-5.6,1
		c-1,1-1.1,1.6-1.1,3.5c0,1.7,0.2,2.6,0.9,3.3C315.3,10447.8,317.8,10448.3,319.9,10447.3z M336.5,10447.1c2.3-1.2,3.2-5,1.6-7.1
		c-3-3.9-9.1-2-9.1,2.9C329,10446.6,333.1,10448.9,336.5,10447.1z M346.5,10447.1c0.9-0.6,1-0.6,1,0c0,0.4,0.4,0.7,1.1,0.7h1.1v-5.6
		c0-5.4,0-5.7-1.1-6.7c-2-2-7.7-1.2-7.7,1.1c0,1,2,1.1,3.2,0.1s3-0.2,3,1.5c0,0.9-0.1,1-0.5,0.6c-0.6-0.6-2.9-0.7-4.1-0.3
		c-1.1,0.4-2,2.5-2,4.7c0,1.6,0.2,2.2,1.3,3.3C343.2,10448,345,10448.2,346.5,10447.1z M364.5,10446.7c0.6-0.6,1.1-1.2,1.1-1.5
		c0-0.8-1.8-1-2.6-0.3c-2.4,2.1-4.9-1.3-2.9-4c0.8-1.2,2.1-1.2,3,0c0.5,0.7,0.9,0.9,1.8,0.6c1.1-0.3,1.1-0.3,0.5-1.6
		c-1.3-2.4-5.1-2.8-7.2-0.6c-1,0.9-1.1,1.5-1.1,3.5c0,2.2,0.1,2.5,1.5,3.7C360.3,10448.2,363,10448.3,364.5,10446.7z M374.4,10447.2
		c1.4-0.7,2.6-2.6,2.6-4.1c0-5.7-8.2-7.1-9.7-1.7C366.1,10445.8,370.3,10449.2,374.4,10447.2z M404,10446.6c0.9-0.8,1.5-1.8,1.6-2.8
		l0.3-1.6h-3.2c-2.3,0-3.1-0.2-3.1-0.6c0-1.4,2.7-2.2,3.2-1c0.3,0.7,2.5,0.4,2.5-0.4c0-1.2-1.9-2.2-4-2.2c-2.6,0-3.8,1-4.4,3.4
		C395.8,10446.3,400.5,10449.7,404,10446.6z M410,10447.2c0.2-0.6,0.4-0.6,1.2,0c1.3,0.9,3.2,0.8,4.3-0.2c0.8-0.7,0.9-1.4,0.9-4.8
		v-3.9H415h-1.3l-0.1,3.6c-0.1,3.4-0.2,3.5-1.2,3.7c-1.6,0.3-2.3-1-2.3-4.3v-2.9h-1.3h-1.3v4.5c0,2.5,0.1,4.6,0.3,4.8
		C408.4,10448,409.8,10447.8,410,10447.2z M432.9,10446.3c1.3-1.3,1.5-1.8,1.5-3.5c0-1.6-0.3-2.2-1.3-3.4c-1.1-1.3-1.5-1.4-3.6-1.4
		c-2,0-2.4,0.2-3.6,1.4c-1,1.1-1.3,1.8-1.3,3.4c0,1.7,0.2,2.2,1.5,3.5c1.2,1.2,1.9,1.5,3.4,1.5
		C431.1,10447.8,431.7,10447.6,432.9,10446.3z M438.7,10447.2c0.2-0.6,0.4-0.6,1.2,0c1.2,0.8,2.5,0.8,3.8,0c0.9-0.6,1.1-0.6,1.8,0
		c1.1,0.9,2.8,0.9,4.1-0.1c0.9-0.7,1-1.3,1.2-4.8l0.2-3.9h-1.6h-1.6v3.7v3.7l-1.2-0.1c-1.4-0.2-1.8-1.1-1.9-4.8
		c0-2.4-0.1-2.5-1.1-2.5c-1.1,0-1.1,0.1-1.1,2.7c0,3.7-0.3,4.6-1.6,4.6c-1.4,0-1.9-1.2-1.9-4.5v-2.9h-1.3h-1.3v4.5
		c0,2.5,0.1,4.6,0.3,4.8C437,10448,438.5,10447.8,438.7,10447.2z M459.6,10447c0.9-0.7,1.1-1.3,1.3-4.8l0.2-3.9h-1.8
		c-1,0-2.5-0.1-3.3-0.2c-1.2-0.2-1.8-0.1-2.5,0.5c-2.3,1.9-1.3,4.2,2.3,5.1c2.6,0.6,3,1.6,0.8,1.9c-0.8,0.1-1.5,0-1.5-0.3
		c0-0.6-2.1-0.6-2.4,0c-0.1,0.2,0.2,0.9,0.8,1.5C455,10448.1,458.1,10448.2,459.6,10447z M466,10446.4l0.7-1.4l1.2,1.4
		c0.8,1,1.5,1.4,2.4,1.4c0.7,0,1.2-0.1,1.2-0.3c0-0.1-0.6-1.1-1.3-2.1c-0.7-1-1.3-2.1-1.3-2.3c0-0.3,0.7-1.4,1.6-2.6l1.6-2.2h-1.7
		c-1.4,0-1.8,0.2-2.5,1.4l-0.8,1.4l-0.9-1.4c-0.7-1.1-1.2-1.4-2.4-1.4c-1.7,0-1.7,0,0.4,2.9l1.3,1.8l-1.6,2.1
		c-0.9,1.2-1.6,2.2-1.6,2.4c0,0.1,0.7,0.3,1.5,0.3C465.1,10447.8,465.4,10447.6,466,10446.4z M491.9,10446.1c3.2-3.5-0.1-8.9-4.8-8
		c-2.4,0.4-3.7,2.1-3.7,4.5c0,3.6,1.9,5.4,5.3,5.1C490.2,10447.5,491,10447.2,491.9,10446.1z M508,10447.1c0.8-0.6,0.9-1.4,1.1-4.8
		l0.1-4H508c-0.7,0-1.2,0.2-1.2,0.5c0,0.2-0.4,0.1-1-0.2c-2.9-2-6.7,1-4.6,3.8c0.3,0.4,1.5,1,2.7,1.3c2.6,0.6,3.4,2,1.1,2
		c-0.7,0-1.5-0.2-1.6-0.4c-0.4-0.7-2.4-0.5-2.4,0.2C501.1,10447.4,506.2,10448.6,508,10447.1z M518.8,10446.5
		c1.1-1.1,1.3-1.4,0.8-1.7c-1-0.6-2.2-0.5-2.4,0.3c-0.3,0.7-1.4,0.8-2.6,0.4c-0.8-0.3-1-4.1-0.2-4.8s2-0.6,2.7,0.4
		c0.5,0.7,0.9,0.9,1.8,0.6c1.4-0.3,1.4-0.7,0.1-2.3c-0.9-1-1.4-1.2-3.4-1.2s-2.4,0.2-3.4,1.2c-0.8,1-1.1,1.7-1.1,3.8
		c0,2.3,0.1,2.6,1.4,3.6C514.6,10448.3,517,10448.2,518.8,10446.5z M533.6,10447.1c0.8-0.6,0.9-1.4,1.1-4.8l0.2-4h-1.8
		c-1,0-2.4-0.1-3.1-0.3c-1.7-0.3-3.8,1.1-3.8,2.6c0,1.1,1.4,2.8,2.3,2.8c0.3,0,1.3,0.2,2.2,0.4c1.1,0.3,1.5,0.6,1.4,1.1
		c-0.3,0.7-2.6,0.9-3,0.2s-2.4-0.5-2.4,0.2C526.7,10447.4,531.8,10448.6,533.6,10447.1z"/>
	<path class="st4" d="M401,10784.5c-0.3-0.2-1-2.3-1.5-4.6c-1.1-4.9-2.5-9.8-5.7-19c-2.6-7.3-3.9-12.4-4.1-15.6
		c-0.1-1.3-0.3-2.1-0.4-1.9c-0.4,0.5-1.3,9.4-1.3,13.5c0,2-0.2,3.8-0.4,4.1c-0.3,0.2-0.1,1.6,0.4,3.5c0.4,1.7,1.5,6.5,2.5,10.7
		c1.5,7,1.6,7.6,0.9,8.3c-0.6,0.6-0.9,0.6-1.7,0.3c-0.9-0.4-1.2-1.5-3.1-9.9c-1.1-5.2-2.2-9.5-2.2-9.5s-1.5-0.7-3.2-1.6
		c-1.8-0.9-3.1-1.8-3.2-2.2c-0.3-1.3,0.8-2,2.7-2c3.8,0,3.7,0.1,4-5.5c0.4-6,1.2-12,2.4-17c0.9-3.8,3.7-11.8,4.8-13.9
		c0.4-0.7,0.6-1.3,0.5-1.4c-0.1-0.1-2,1.8-4.3,4.1c-4,4.2-5.1,4.8-6.1,3.8c-1.3-1.3-0.4-2.4,9.3-11.9c8.8-8.6,9.9-9.5,10.8-9.2
		c0.5,0.2,1.1,0.6,1.2,1c0.1,0.3-0.9,2.2-2.2,4.2c-3.5,5.2-6.8,11.9-8.6,17.6c-2.5,7.4-2.5,8,0,3.5c2.8-5.1,7.4-11.9,12.7-18.9
		l4-5.2l1.8,0.4c1.1,0.3,1.7,0.6,1.5,1c-0.2,0.3-1.9,2.6-3.9,5.2c-5.3,7.1-10.7,15-13.1,19.6c-2.1,3.9-2.2,4.2-2.2,7.6
		c0,4.3,0.9,7.5,5,19.5c3.1,8.9,5.3,16.9,5.3,19.5C403.5,10784.4,402.4,10785.4,401,10784.5z"/>
	<path class="st4" d="M274.5,10750.1c-1.7-1.1-4-2.8-5-3.8l-1.9-1.8l0.3-5.1l0.3-5.1l-2.9-1.3c-4.9-2.2-8.7-2.5-10-1.1
		c-0.5,0.6-0.4,4.4,0.3,10.2c0.3,2.1,0.2,2.5-0.8,3.5c-0.7,0.7-1.7,1.3-2.7,1.5c-1.6,0.3-1.8,0.1-4-2.1c-1.8-1.9-2.8-3.5-4.5-7.3
		c-4-9.1-10.7-22.9-21.2-44c-5.8-11.5-10.7-21.9-10.9-23c-0.4-1.5-0.4-2.3,0-3.2c0.6-1.2,1.3-1.3,4.9-0.6c2.1,0.4,2.7,0.8,7.2,5
		c4.3,4,10.7,8.9,11.8,8.9c0.2,0,0.5-0.8,0.7-1.8c0.1-1,0.6-3.4,1-5.2l0.7-3.4l1.5,0.3c0.8,0.1,1.6,0.3,1.7,0.3
		c0.1,0.1-0.4,2.7-0.9,5.7c-3.3,17.5-2.6,22.7,3.1,22.7c1.1,0,2.3-0.3,3.3-1c0.9-0.6,4.3-5.1,9.1-12c4.2-6,7.6-11.2,7.6-11.4
		c0-0.4,2.4,0,3.4,0.5c0.4,0.2-1.1,2.7-4.9,8.3l-5.5,8l4.5,2.1c5.7,2.7,9.1,4.7,12.8,7.6c2.9,2.3,3.5,3.3,2.4,4.4
		c-0.9,0.9-1.9,0.6-3.7-0.9c-3.1-2.6-7.2-5.1-12.2-7.5c-2.7-1.3-5.2-2.3-5.5-2.3s-1.4,1.2-2.3,2.6c-2.4,3.5-4.6,4.9-8,5.1
		c-3.4,0.3-4.5-0.1-6.6-1.9c-2.6-2.3-3.3-4.8-2.9-11.1l0.3-5.2l-2.5-1.3c-3.1-1.6-6.6-4.2-10.5-8c-3.9-3.7-6.9-6.2-7.2-5.9
		s0.8,2.7,7.2,15.6c7.4,14.7,11.9,23.9,15.1,30.5c3.5,7.3,11.2,23.8,11.2,24.2c0,0.2,0.6,1.1,1.4,2.1c1.7,2.2,2.8,2.5,2.4,0.4
		c-0.1-0.8-0.4-3.2-0.5-5.3c-0.4-5.1,0.2-7.2,2.2-8.1c3.7-1.7,7.6-1.2,14.3,1.8l3.7,1.7v3v3l4.3,1.8c5.6,2.4,6.4,2.9,6.2,4
		c-0.3,1.9-1.4,1.9-6,0c-2.4-1-4.7-1.8-5-1.6c-0.8,0.3,1.8,2.5,5.6,5c2.7,1.7,3.1,2.2,3.1,3.3
		C279.8,10752.6,278.1,10752.4,274.5,10750.1z"/>
	<path class="st4" d="M350,10729.7c-0.8-1.9,0.8-9.9,2.6-14c2.2-4.7,6.3-7.3,10.5-6.7c4,0.7,5.4,1.9,4.3,3.6
		c-0.4,0.5-0.9,0.6-3.1,0.1c-3.8-0.7-5.5-0.1-7.4,2.7c-1.7,2.5-2.6,5.1-3.3,10.2c-0.3,2-0.7,4-1,4.3
		C352.1,10730.6,350.3,10730.5,350,10729.7z"/>
	<path class="st4" d="M459.8,10722c-5.3-2-11.8-4.3-14.4-5.2l-4.8-1.6v-17.5c0-9.6,0-17.5,0.1-17.5c0.6,0,12.5,4.5,12.9,4.8
		c0.3,0.3,0.1,0.4-0.7,0.2c-0.6-0.1-3.1-0.4-5.5-0.5s-4.9-0.3-5.4-0.5c-0.8-0.2-1,0-1,0.9c0,1.2,0.2,1.2,9.7,2
		c12.6,1,12,0.9,21.3,4.8c25.6,10.8,38.3,19.1,38.3,25.4c0,5.3-12,8.3-32.4,8.3h-8.4L459.8,10722z"/>
	<path class="st4" d="M213.5,10707.5c-5.3-3.2-7.3-13.7-3.2-16.6c3.7-2.5,8.8,1.8,10.1,8.5c0.7,3.4,0.1,5.9-1.6,7.6
		C217.2,10708.6,215.6,10708.7,213.5,10707.5z M217.1,10703.1c0.5-2.1-0.7-6-2.4-8c-1.6-1.8-2.5-1.9-2.9-0.4
		c-0.9,3.6,2.2,10.6,4.5,9.9C216.5,10704.7,216.8,10704,217.1,10703.1z"/>
	<path class="st4" d="M292.6,10706.5c-1.9-1.8-2.4-3.9-2.4-8.9c0-4.8,1.9-15.8,2.8-16.7c0.1-0.2,2.3,0.2,4.8,0.7
		c3.5,0.7,5.1,1.3,7.1,2.6c2.9,1.9,3.5,2,4.7,0.9c0.8-0.7,1.1-0.8,2.4-0.4c0.9,0.3,1.6,0.6,1.6,0.9c0,0.2-0.7,1.1-1.5,1.9
		c-1.2,1.3-1.8,1.6-3.7,1.8c-1.9,0.2-2.4,0-4.8-1.6c-1.5-1-2.7-1.8-2.9-1.8c-0.1,0,0,2.5,0.4,5.5c1,9.4,0.1,13.7-3.1,15.6
		C295.8,10708.4,294.3,10708.2,292.6,10706.5z M296.5,10703.7c1.1-1,1.5-2.5,1.5-4.8c0-3.2-1.5-16.5-1.8-16.5
		c-0.4,0-1.5,4.5-2.2,9.1c-0.6,4-0.4,11.3,0.4,12.3C295.3,10704.6,295.6,10704.6,296.5,10703.7z"/>
	<path class="st4" d="M413.2,10706.5l-1.2-0.5l2.5-3.2c5.1-6.8,11.2-16,11.7-17.8c0.3-1,0.6-3.5,0.6-5.6v-3.7l1.1,0.3
		c2.6,0.8,2.6,0.8,2.6,3.4c0,2.8-1,7.2-2,9.2c-2.3,4.3-12.6,18.4-13.4,18.4C414.7,10707,413.8,10706.8,413.2,10706.5z"/>
	<path class="st4" d="M467.8,10685.4c-2.4-1-21.1-7.6-24.8-8.9l-2.3-0.8v-17.4v-17.4l1,0.3c2.7,0.8,12.2,4.2,12.2,4.5
		s-7.2-0.2-10.7-0.6c-2.1-0.3-2.1-0.3-2.1,0.9c0,0.6,0.1,1.1,0.4,1.1c0.2,0,5.1,0.4,10.9,0.9l10.6,0.9l7.5,3
		c10.5,4.3,23.4,10.5,29.1,14.2c12.8,8.2,14.3,14.3,4.3,17.4c-4.7,1.5-7.9,2-15.2,2.5C477.8,10686.6,470.3,10686.4,467.8,10685.4z"
		/>
	<path class="st4" d="M312.2,10680.4c-0.7-0.2-1.5-2.6-3-8.3l-0.5-1.9l-0.9,1.1c-1.6,2-7,1.3-7-0.8c0-1.1,1.3-1.9,2.5-1.7
		c1.1,0.3,1.1,0.2,0.8-1.5c-0.3-1.6-0.1-2,1-3.1l1.2-1.3h-5.1c-4.1,0-5.3-0.1-5.8-0.7c-0.9-0.8-0.9-1.5,0-2.6
		c0.8-1.1,3.1-1.8,7.4-2.3c1.7-0.2,3.1-0.4,3.2-0.6c0.1-0.1,0-1.4-0.3-2.9c-1.2-7.2-1.7-10.1-1.5-10.3c0.1-0.1,0.9,0,1.9,0.3
		l1.7,0.4l1,6.2c0.5,3.4,1,6.3,1.1,6.3c0.2,0.2,10.5-0.6,10.7-0.7c0.1-0.1-0.5-2.2-1.4-4.6c-0.8-2.5-1.5-4.6-1.3-4.7
		c0.1-0.1,1,0,1.9,0.2c1.4,0.3,1.8,0.6,2.4,2.3l0.8,1.9v-1.8v-1.8l1.8,0.5l1.9,0.4l-0.3,3.7l-0.2,3.7l2.2-0.3c2.7-0.3,2.9-0.5,2-1.5
		c-1.1-1.2-3.1-4.9-2.9-5.1c0.5-0.5,4.1,0.8,4.8,1.7c0.7,0.9,0.8,0.9,0.8,0.2s0.2-0.7,1.5-0.5c1.9,0.4,2,0.5,2.3,2.2
		c0.3,1.8,0.9,1.9,5.4,0.9c2.5-0.5,3.1-0.5,6.1,0.3c2.2,0.6,3.1,1,2.7,1.3c-1,0.5-7.5,1.9-12,2.5l-4,0.6l9.3,0.3
		c10.3,0.3,17.8,1.2,23.3,2.6c3.5,0.9,5.3,1,9.6,0.8c1.1-0.1,3.2,0.2,4.6,0.6l2.6,0.8l-2.6,0.8c-1.5,0.5-4.1,1-6,1.3
		c-3,0.4-3.8,0.3-6.8-0.4c-11.5-3-24.8-3.6-51.7-2.4c-6.2,0.3-6.3,0.3-6.3,1.3c0,0.5,0.8,4.1,1.8,7.8c2.5,9.5,2.5,9.2,1.2,9.2
		C313.4,10680.6,312.6,10680.5,312.2,10680.4z"/>
	<path class="st4" d="M298.3,10677.4c-0.5-0.1-3.7-0.8-7.1-1.5s-7.2-1.7-8.5-2.1c-1.2-0.5-3.1-0.9-4.2-0.9c-1.9,0-8.8-1.1-10.1-1.6
		c-1.1-0.3,1.8-1.4,5.2-1.9c5.7-0.8,11.9,0.9,17.6,4.7c1.5,1,2.8,1.7,2.9,1.5s0.5-1.4,1-2.7c0.4-1.3,1-2.6,1.2-2.9
		c0.4-0.6,2.3-0.8,2.6-0.2c0.4,0.6,0.8,7.9,0.4,7.8C299.4,10677.6,298.8,10677.5,298.3,10677.4z"/>
	<path class="st4" d="M426.8,10671.4c-1.3-0.4-2.3-1-2.6-1.6c-1.2-2.2-5.3-5.8-10.2-9.1c-2.9-1.9-5.7-4.1-6.3-4.8
		c-0.6-0.8-1.4-2.6-1.8-4.1c-1.5-5.7,0.2-10.6,5.6-15.9c1.8-1.7,3.4-3.1,3.8-3.1c1,0,2.8,0.8,2.8,1.3c0,0.2-1.5,1.9-3.5,3.8
		c-5.1,4.9-6.4,8.1-5.3,12.7c0.7,2.9,1.8,4.1,7.3,7.6c5.4,3.5,9.2,7.2,11.2,10.8c0.8,1.5,1.4,2.8,1.3,2.9
		C429,10671.9,428,10671.7,426.8,10671.4z"/>
	<path class="st4" d="M240,10666.1c-1.2-0.2-1.2-0.3,0-5.8c2.1-8.6,3-14.4,3.3-21.2c0.2-3.7,0.4-6.9,0.6-7c0.2-0.2,0.9-0.2,1.6,0
		l1.4,0.3v5.5c0,5.7-0.9,11.7-3.4,23C242.2,10666.7,242.3,10666.6,240,10666.1z"/>
	<path class="st4" d="M223.1,10659c-1.1-0.5-2.5-1.7-3.3-2.8c-1.4-1.9-1.8-2.2-2.3-1.4s-3.8,2.1-5.5,2.1c-2.6,0-6-1.9-8.1-4.8
		c-2.6-3.5-2.9-4.2-3.9-11.8l-1-6.6l-3.3-0.3c-5-0.5-11.6-1.9-19.1-4.1c-0.6-0.2-0.8-0.7-0.8-2.2c0-1.7,0.1-1.9,0.8-1.6
		c3.9,1.6,17.5,4.5,20.8,4.5h1.2l-0.4-2.4c-0.2-1.3-0.3-2.5-0.2-2.6c0.2-0.2,14.6,1.7,17.6,2.3c1.2,0.3,1.2,0.3,0.5,1.1
		c-2,2.2-7.4,2.2-11.5,0c-1.4-0.7-2.6-1.3-2.7-1.2c-0.1,0.1,0.1,2.6,0.5,5.5s1,7.1,1.2,9.2c0.6,4.5,1.9,7.2,4.4,9.5
		c3.1,2.8,6.3,2.3,8.7-1.2c1.3-1.9,1.2-0.4,1.4-19.1v-3.5l1.5,0.2l1.5,0.2v3v2.9l4,2c4.1,2.1,8,5.1,9,7c1.5,3,1.6,10.5,0,12.8
		c-1.5,2.2-5.2,4.1-8.2,4.1C225.5,10660,224.2,10659.5,223.1,10659z M229.8,10655.6c1.6-0.8,2.2-2.3,2.1-5.7c0-3.8-0.8-5.7-3-7.5
		c-1.3-1.1-6.8-4-7.4-4c-0.1,0-0.1,2.1,0,4.7c0.2,3.5,0.1,5.1-0.4,6.4l-0.7,1.8l1.6,2.1c0.9,1.2,2.1,2.3,2.7,2.6
		C225.9,10656.5,228.3,10656.3,229.8,10655.6z"/>
	<path class="st4" d="M381.3,10658c-2.5-0.7-2.7-1-3.4-4.1c-0.5-2.6-0.3-5.3,1-8.5c0.4-1.2,0.8-2.2,0.8-2.3c0,0-1.2,0.9-2.6,2
		c-3,2.5-5.2,3.1-6.8,2c-0.9-0.6-1.1-1-1.1-2.8c0-1.1,0.2-2.7,0.4-3.5c0.2-0.8,0.4-1.6,0.3-1.6c0-0.1-0.8,0.9-1.7,2.1
		c-2.1,3.1-5.7,6.9-8.3,8.8c-2.1,1.5-2.1,1.5-4.4,1c-1.2-0.3-2.3-0.6-2.3-0.8s0.7-0.7,1.5-1.1c7-3.5,14.1-13.4,18.7-26
		c0.8-2.3,0.8-2.3,2.4-2c0.8,0.2,1.6,0.3,1.7,0.4c0.1,0.1-0.4,1.6-1,3.3s-1.2,4.6-1.4,6.4s-0.8,5.1-1.4,7.3
		c-1.3,4.8-1.3,5.4-0.5,4.9c0.9-0.5,17.4-16.5,17.8-17.3c0.5-0.8,3.6-0.3,3.6,0.5c0,0.3-2,3.3-4.5,6.7c-5.6,7.8-7.2,10.6-8.4,13.9
		c-1.2,3.4-0.9,6.2,0.9,9c0.8,1.1,1.2,2.1,1,2C383.6,10658.6,382.5,10658.3,381.3,10658z"/>
	<path class="st4" d="M162.4,10655.6c-1.7-0.2-6.6-0.6-10.8-0.9c-7.6-0.5-7.8-0.6-12.4-2.5c-11.3-4.7-23-11.1-28-15
		c-8.5-6.8-8-11.6,1.5-14.5c5.4-1.6,12.3-2.3,25.4-2.3h12.4l9.3,3.3c5.2,1.8,9.5,3.3,9.7,3.3c0.1,0,0.2-0.6,0.1-1.3
		c-0.1-1.3-0.3-1.4-4-2.7c-2.2-0.7-3.9-1.4-3.9-1.6c0-0.2,1.6-0.1,3.7,0c2,0.1,3.9,0.3,4.2,0.3c0.4,0,0.5,3.8,0.5,17.1v17.1h-2.3
		C166.5,10656,164.1,10655.8,162.4,10655.6z"/>
	<path class="st4" d="M191.1,10646.6c-1.5-0.7-4.6-2.6-7-4.3c-2.3-1.7-5.2-3.4-6.3-3.8c-1.9-0.7-2-0.8-2-2.4c0-1.3,0.2-1.7,0.8-1.7
		c1.4,0,6,2.4,9.8,5.1c2.1,1.5,5,3.2,6.5,4c2.8,1.4,3.5,2.5,2.2,3.7C194.4,10648.1,194,10648,191.1,10646.6z"/>
	<path class="st4" d="M471.3,10646.6c-1.6-0.2-6-1.6-11-3.4c-4.6-1.7-10.9-3.9-13.9-5l-5.5-1.9l-0.1-17.5l-0.1-17.5l3,1
		c1.7,0.6,4.9,1.7,7.2,2.5c12,4.2,27,10.3,36.6,15.1c12.3,6,18.8,10.5,21.7,14.9c3.9,5.9-1.6,9.7-15.9,11.2
		C487.6,10646.7,474.6,10647,471.3,10646.6z"/>
	<path class="st4" d="M333.1,10645.7c-0.9-0.3-1-0.8-1.3-6.8c-0.3-7.4-0.9-13.1-1.6-15.1c-0.8-2.3-4-2.9-8.6-1.5
		c-2.9,0.9-6,3.5-6.6,5.4c-0.4,1.5,0.7,5.4,2.6,9.5c0.8,1.7,1.6,3.6,1.8,4.3c0.3,1,0.2,1.2-0.5,1c-0.4-0.1-1.3-0.3-1.9-0.5
		c-0.9-0.2-1.5-1-2.7-3.8c-3.6-8-3.7-12.1-0.1-15.4l1.1-1l-1-1.3c-0.8-1.1-1-2-1.1-4.8c0-1.9-0.1-4.8-0.2-6.6l-0.1-3.1l1.1,0.2
		c2.8,0.6,2.6,0.2,2.6,6.2c0,4.2,0.1,5.7,0.6,6c0.9,0.7,5.3,0,8.1-1.4c2.2-1.1,3.9-1.6,8.2-2.5c1.9-0.3,2.5-0.7,2.5-1.2
		c0-1.4,0.7-1.9,2.2-1.6c1.1,0.2,1.4,0.5,1.4,1.5c0,1.7-0.8,3.3-1.9,3.8c-0.5,0.2-2.2,0.6-3.6,1c-3.3,0.7-3.5,0.8-2.4,1.6
		c2.2,1.5,2.9,4.6,3.6,16.3c0.3,4.5,0.6,8.6,0.7,9.2c0.2,0.8,0,1-0.8,0.9C334.5,10646.1,333.6,10645.9,333.1,10645.7z"/>
	<path class="st4" d="M304.5,10639.3c-0.8-0.3-0.8-0.7-0.8-3.5c0.1-3.3,1.1-8,2.1-9.9c0.8-1.6,1.9-1.9,2.9-0.9
		c0.8,0.8,0.8,0.9-0.3,4.1c-0.7,1.9-1.1,4.2-1.1,5.6C307.4,10639.3,306.8,10640.2,304.5,10639.3z"/>
	<path class="st4" d="M416.9,10628.9c-0.6-0.2-1-0.8-1-1.2c0-1.7-1.5-4.9-3.2-6.8c-2.3-2.6-5.5-4.1-8.8-4.1c-2,0-2.6-0.2-3-0.8
		c-1.1-2,0.7-2.9,4.9-2.5c6.8,0.6,12.8,6.6,13.5,13.5C419.6,10629.5,419.3,10629.8,416.9,10628.9z"/>
	<path class="st4" d="M245.2,10627.7c-1-0.2-1.1-0.3-0.8-3.3c0.8-7.8,3.9-18.7,7.5-25.7c1.1-2.2,2.2-4,2.5-4.2
		c0.2-0.1,1.7,0,3.2,0.3l2.7,0.5l-1.8,0.9c-1.6,0.8-2,1.3-4,5.4c-3.2,6.7-5.6,15-6.5,22.3
		C247.5,10628.2,247.6,10628.1,245.2,10627.7z"/>
	<path class="st4" d="M219.1,10623.4c-3.2-0.5-3.1-0.3-2.4-2.6c0.6-1.9,0.6-2-0.6-3.5c-2.2-2.9-6.9-7.5-10.9-10.8
		c-2.2-1.8-4-3.5-4.1-3.8c-0.1-0.4-0.4-0.4-1.4-0.1c-1.1,0.4-1.2,0.6-1.1,1.8c0.8,5.5,2.3,16.1,2.2,16.2c0,0-0.8,0-1.8-0.3
		c-1.9-0.4-1.8,0-2.8-8.2l-0.5-4.4l-9.9-4.9l-9.9-4.9v-1.8c0-1,0.1-1.9,0.2-1.9c0.2,0,0.8,0.3,1.5,0.6c1.9,1,1.6,0.5-0.3-0.6
		c-1.3-0.7-1.5-1.1-1.4-2.1c0.2-2,1.8-1.7,7.6,1.6l5.3,2.9l0.1-2.7c0.1-2.5,0.2-2.8,1.4-3.4c0.7-0.3,1.6-0.6,2-0.6
		c0.6,0,0.7-0.3,0.4-1.2c-0.8-3.7-0.8-4,0-4c2.3,0,2.7,0.4,3.5,3.6c0.4,1.7,0.8,3.2,0.8,3.2c0.1,0.1,1.7-1.1,3.7-2.5l3.6-2.7
		l2.7,0.4l2.7,0.4l-2,1.3c-4,2.5-9.2,6.8-9.8,8c-1.1,2.2-3.1,1.6-3.9-1.3c-0.3-1-0.8-1.7-1.1-1.7c-0.5,0-0.7,0.7-0.7,3.3
		c0,2.4-0.2,3.5-0.7,4.1c-0.7,0.7-0.6,0.8,1.1,1.7l1.8,0.9v-1.3c0-0.8,0.3-1.5,0.8-1.7c0.4-0.2,6-2.4,12.4-4.8
		c8.4-3.2,11.9-4.3,12.4-4c0.6,0.3,0.7,2.6,0.8,16.2c0.1,12.5,0,15.8-0.4,15.8C220.5,10623.6,219.7,10623.5,219.1,10623.4z
		 M217.8,10604.5v-8.8l-5.4,2c-3,1.2-6.1,2.4-6.9,2.7l-1.5,0.6l2.4,1.8c1.3,1,4.4,3.8,6.8,6.2c2.4,2.4,4.5,4.3,4.5,4.3
		C217.7,10613.3,217.8,10609.3,217.8,10604.5z"/>
	<path class="st4" d="M394.6,10622.3c-1-0.3-1.1-0.6-0.8-1.2c0.3-0.5,0.3-1.6,0-3.1c-0.3-1.2-0.4-3.5-0.4-5.1v-2.8l-1.4,0.3
		c-0.8,0.2-1.5,0.5-1.6,0.8c-0.3,1-4.2,4.8-6.1,6c-1.6,1.1-2.2,1.3-3.8,1c-3.2-0.5-3.3-0.9-0.7-2.4c3.8-2.2,6.8-5.1,7.4-6.7
		c0.4-1.1,0.8-1.6,1.8-1.8l1.3-0.3l-3.2-2.2c-7.1-5-9.8-8.7-13-18.1c-1.9-5.7-1.9-5.8,0.2-5.3c1.7,0.4,1.8,0.5,3.3,4.8
		c2.6,7.1,4.4,10.1,8,13c1.7,1.4,4.1,3.2,5.3,4l2.2,1.5l0.1-1.5c0.1-0.8,0-3.3-0.3-5.4l-0.4-4l-2.6-2.6c-2.6-2.7-5.7-6.7-5.1-6.7
		c0.2,0,1.3,0.3,2.5,0.6c1.6,0.5,2.9,1.3,5.3,3.7c3.8,3.8,3.8,3.5,4.3,18.8c0.2,6.2,0.5,11.6,0.7,12.1c0.4,1.1-0.4,3.2-1.2,3.2
		C396.1,10622.8,395.3,10622.5,394.6,10622.3z"/>
	<path class="st4" d="M187.1,10618.9c-1.2-0.2-4.2-0.6-6.7-0.9l-4.5-0.5v-1.6v-1.5l4.5,0.3c2.5,0.1,4.7,0.4,4.9,0.6
		c0.3,0.2,2,1.2,3.8,2.2c3.1,1.6,3.2,1.8,1.8,1.7C190,10619.3,188.3,10619.1,187.1,10618.9z"/>
	<path class="st4" d="M158.6,10615.8c-4.5-0.4-9.5-0.8-11.2-0.8c-3.5,0-6-1-18.1-6.8c-15.8-7.5-24-14-24-18.8c0-3,2.5-4.8,8.5-6.4
		c6-1.6,10.7-1.9,24.2-2h13l5.1,1.9c2.8,1,7,2.5,9.4,3.3l4.3,1.4l-0.1-1.3c-0.1-1.3-0.4-1.4-4.1-2.8c-2.2-0.8-4-1.6-4.1-1.7
		c-0.2-0.2,4.7,0.1,7.4,0.5l1.4,0.2v17v17.1h-1.6C167.6,10616.7,163.1,10616.3,158.6,10615.8z"/>
	<path class="st4" d="M361.6,10612.3c-1.5-0.7-2-1.3-2-2c0-1.6,1.2-2.1,3.1-1.2c0.9,0.4,2.2,0.7,2.9,0.7c1.9,0,6.6-1.8,9-3.4
		c2.3-1.5,3.1-1.6,3.9-0.3c0.7,1,0,1.9-2.6,3.7c-3,1.9-6.5,3.2-9.7,3.4C364.1,10613.3,363.3,10613.2,361.6,10612.3z"/>
	<path class="st4" d="M406.1,10611.1c-1.8-0.5-2.5-1.3-2.5-2.4c0-1.3,1.2-1.6,3.5-1c5.9,1.7,11.6-3.5,11.7-10.7
		c0-1.5,0.1-2.7,0.2-2.7s1,0.2,1.9,0.5l1.8,0.5l-0.3,2.8c-0.6,5.4-3.8,10.4-7.9,12.4C412.4,10611.4,408,10611.7,406.1,10611.1z"/>
	<path class="st4" d="M336.7,10607.2c-0.9-0.3-2.2-1.4-4-3.7c-3.2-4.1-3.4-4.5-4.1-7.5c-1.3-5.4-2.7-9.1-3.8-9.8
		c-0.6-0.4-1.2-0.6-1.4-0.4c-0.4,0.4-0.4,5.7,0,9.4c0.3,2.3,0.2,3-0.4,3.5c-1,1-1.4,0.9-2.5-0.5c-2-2.4-6.2-6.6-6.6-6.6
		c-0.6,0-0.4,2.2,0.7,6.4l1.1,4l-1.8-0.3c-1-0.2-1.9-0.4-1.9-0.5c-0.1-0.1-0.5-1.8-1-3.8c-1.5-6.6-0.9-10.7,1.5-10.7
		c1.1,0,2.2,0.6,5.2,3.1l2,1.6v-2.9c0-4.9,1.7-7,5.2-6.3c3.2,0.6,5.3,4.1,7.4,13.1c0.4,1.7,1.2,3.1,2.9,5.2c1.3,1.6,2.9,3.8,3.5,5
		C339.7,10607.9,339.6,10608,336.7,10607.2z"/>
	<path class="st4" d="M302.8,10591.1c-2.1-2.9-2.6-4.9-1.4-5.9c0.7-0.6,2.4-0.2,2.4,0.6c0,0.3,0.8,1.7,1.8,3.1
		c1.9,2.7,2.1,3.6,1.2,4.5C305.8,10594.4,304.7,10593.8,302.8,10591.1z"/>
	<path class="st4" d="M263.4,10591.5l-2.2-0.5l1.5-0.6c0.8-0.4,5.4-2.5,10.1-4.7s10.4-4.8,12.6-5.8c3.8-1.8,12.5-6.8,20.4-11.8
		l3.7-2.3l2.5,0.6l2.4,0.6l-8.8,5.4c-4.9,3-10.4,6.4-12.4,7.4c-4.9,2.7-26,12.4-27,12.4C266,10592,264.7,10591.8,263.4,10591.5z"/>
	<path class="st4" d="M415.6,10588.9c-6.8-2.2-9.2-4.1-12.8-10.1l-2.2-3.5l-0.3-9.2c-0.1-5.1-0.6-10.7-0.9-12.4
		c-2-10.2-7-16.6-17-21.6l-2.9-1.5l-15.4-0.1c-8.5,0-15.9-0.2-16.4-0.3c-0.7-0.2-1-0.6-1-1.3v-1.1h17.4h17.4l3.5,1.7
		c6,3,10.7,7.2,13.9,12.6c3.4,5.6,4.6,11.6,5,23.5l0.3,8.6l1.7,2.8c2.1,3.6,5.4,6.7,9,8.3c2.6,1.1,6,3.8,6,4.8
		C420.8,10590.6,420.6,10590.5,415.6,10588.9z"/>
	<path class="st4" d="M213.8,10583c-1.9-0.3-3-0.8-1.9-0.8c0.4,0,0.5-1.6,0.5-5.4v-5.4l-4.2,1.6c-2.3,0.9-6.4,2.3-9,3.1
		c-4.7,1.4-4.8,1.5-4.8,2.8s0,1.3-1.8,1.2c-1.9-0.2-1.9-0.2-1.9-3.1c0-1.9,0.1-2.2,2-2.6c4.4-1.1,15.7-5,18.7-6.5
		c4.7-2.3,4.6-2.4,4.5,7.4l-0.1,8L213.8,10583z"/>
	<path class="st4" d="M382.5,10579.4c-2.9-0.8-3.3-1.1-5.2-3.4c-1.1-1.4-2.2-2.5-2.3-2.5s-0.1,0.9,0,1.9c0.2,1.7,0.1,1.9-0.5,1.8
		c-0.4-0.1-1.2-0.3-1.9-0.5c-1.1-0.3-1.2-0.5-1.5-3.4c-0.4-3.8,0.1-4.4,3.2-4.2c0.6,0,2,1,3.3,2.1c1.2,1.1,2.1,1.7,2,1.3
		c-0.2-0.4-0.6-2.6-1.1-4.8c-0.5-3-1-4.4-1.9-5.5c-1.5-1.8-2.9-4.9-4.5-9.8c-1.4-4.2-2.5-5.7-4.1-5.7c-1.9,0-4.1,1.3-5.3,3.2
		c-1.1,1.7-1.2,2-1.2,7.6c0,3.2,0.3,6.7,0.6,7.6c0.7,2.2,0,3.4-1.6,3.2c-1.7-0.2-2.4-3-2.5-10.5c0-7.2,0.5-9.2,3.4-11.8
		c2-1.9,4.1-2.6,7.1-2.7h1.8l-1.5-0.6c-5.2-2.2-20.7,4-42.3,17.1l-6.8,4.1l-2.4-0.6l-2.4-0.5l3.3-2.1c18.1-11.5,32.7-18.7,42.5-21.1
		c5.6-1.4,8.3-1.2,12.2,1.3c4.9,3.1,6.4,7,8.5,22.1c0.9,6.1,2,10.5,3.7,14.6c0.7,1.7,1.2,3.1,1,3.1
		C385.8,10580.4,384.3,10579.9,382.5,10579.4z"/>
	<path class="st4" d="M179.7,10578.6c-3.9-0.4-3.9-0.4-3.9-1.7s0.4-1.5,1.8-0.8c0.4,0.3,0.8,0.3,0.8,0.3c0-0.1-0.6-0.5-1.3-0.9
		c-1.2-0.6-1.3-0.9-1.3-2.6c0-1.1,0.1-1.9,0.4-1.8c4,2,8.9,4.2,9.4,4.2c0.4,0,0.5-0.6,0.3-2.6c-0.4-3.2,0.1-4,2.3-3.6l1.5,0.3
		l-0.3-1.7c-0.2-1-0.4-2.2-0.5-2.8l-0.2-1.2l-2.1,0.6c-2.4,0.7-7.5,0.5-9.4-0.3c-1.1-0.4-1.2-0.8-1.2-2.3v-1.8l2.3,0.8
		c3.3,1.1,7.7,0.9,9.3-0.5c0.2-0.2,0-2-0.4-4.1c-0.6-2.9-0.6-3.9-0.2-4.4c0.7-0.8,14.4-5.1,15.8-5c5.1,0.4,8.5,1.2,8.9,1.9
		c0.2,0.4,0.4,3.5,0.3,6.9l-0.1,6.2l-7.3,3.8c-4,2.1-9,4.6-11.1,5.6l-3.8,1.8v2.2c0,3.6-1.6,4.8-4.7,3.7c-0.8-0.3-1.1-0.3-0.9,0
		c0.1,0.3,0.1,0.4-0.1,0.3C183.8,10579.1,181.9,10578.8,179.7,10578.6z M204.9,10561.3l3.6-1.8v-5.5c0-3-0.1-5.5-0.3-5.7
		s-17.3,5.1-17.8,5.5c-0.1,0.1,2,11.9,2.4,13c0.1,0.3,1.6-0.2,4.3-1.6C199.4,10564.1,202.9,10562.3,204.9,10561.3z"/>
	<path class="st4" d="M164.6,10577c-1.9-0.2-7.5-0.7-12.4-1l-8.8-0.7l-5.1-2.2c-17.6-7.6-30.4-15.7-32.5-20.6c-2.2-5,1.5-8,12.6-9.9
		c3.5-0.6,6.8-0.8,20.3-0.8c9.9,0,19,0.2,23.7,0.6l7.6,0.6v17.2v17.2h-1C168.6,10577.3,166.5,10577.2,164.6,10577z"/>
	<path class="st4" d="M123.1,10492.1c-0.7-0.6-1.1-1.6-1.1-2.4v-1.3l13.1,0.1l13.1,0.1l0.1,1.4c0.1,1-0.1,1.6-0.8,2.2
		c-0.9,0.9-1.4,0.9-12.2,0.9H124L123.1,10492.1z"/>
	<path class="st4" d="M278.4,10492.1c-0.7-0.6-1.1-1.6-1.1-2.4v-1.3h13.2h13.2v1.7c0,3-0.3,3.1-13.1,3.1h-11.2L278.4,10492.1z"/>
	<path class="st4" d="M164.8,10444.8v-4.3h1.9c2.4,0,3.2,0.7,3.6,3.2c0.4,2.7-0.6,4.8-2.4,5.2
		C164.7,10449.5,164.8,10449.6,164.8,10444.8z"/>
	<path class="st4" d="M387.1,10448.8c-0.2-0.2-0.4-2.1-0.4-4.4v-4h1.9c3,0,3.6,0.7,3.6,4.1c0,1.9-0.2,3-0.7,3.5
		C390.9,10448.7,387.6,10449.4,387.1,10448.8z"/>
</g>
</svg>
